<svg xmlns="http://www.w3.org/2000/svg" viewBox="-1 32 665 378" role="img" aria-label="SupportNow"><path fill="#188aec" d="M-1614.91,320c10,0,20-.14,30-.15q88,0,176,.09c4.66,0,7-.61,7.77-6,2.21-14.91,7.47-28.92,14.31-42.34.65-1.28,1.74-2.46,1.38-4.43h-5.37q-77.48,0-155,.09c-4,0-5.43-.76-5.34-5.1.3-13.49.21-27,0-40.48,0-3.34.71-4.58,4.36-4.57q117,.15,234,0c3.43,0,4.61.9,4.56,4.44q-.18,16,.26,32a7.39,7.39,0,0,1-3.49,7.05c-19.88,13.84-33.37,32.3-39.35,55.89-6.62,26.17-3,51.1,9.45,74.95,17.9,34.39,44.68,60.63,75.76,82.91a406.12,406.12,0,0,0,84.38,46c2,.8,3.77,1.57,6.13.61,45.71-18.69,88-42.89,123-78.19,21.37-21.51,38.36-46,46.5-75.73,10.78-39.39-2.63-80.14-33.5-102.61-29.34-21.34-71.44-21.06-98.13,1.15-19.29,16-26.06,37.5-25.09,61.92a52.83,52.83,0,0,0,.59,8.46c.67,3.28-.13,4.31-3.59,4.26q-20.74-.25-41.49,0c-3.21,0-4.15-1-4.48-4.11-5.57-52.65,21.87-120.95,98.14-135.13,75.32-14,147.06,36.23,159.29,114.4,6.57,42-3.94,80.14-25.7,115.81-22.09,36.2-52.16,64.64-86.88,88.41-33.25,22.76-68.72,41.22-107.1,53.85a29.38,29.38,0,0,1-9.29,1.49q-139.21-.08-278.45.08c-4.86,0-6.08-1.19-6-6,.37-13,.3-26,0-39-.09-4.12.93-5.25,5.16-5.24q87,.23,174,.1h6.42c-9.06-6.68-17.26-12.53-25.23-18.66a292.31,292.31,0,0,1-36-32.36c-2-2.12-4.13-1.78-6.37-1.79q-97.74,0-195.47.11c-5.17,0-6.67-1.24-6.51-6.48.41-12.82.3-25.66,0-38.48-.09-4.12,1.05-5.25,5.22-5.24q79,.21,158,.09h5.88c-2.64-5.35-5-10.07-7.31-14.83-4.91-10.23-8.88-20.84-10.85-32-.83-4.71-2.86-5.56-7.25-5.54-33,.2-66,.09-99,.12q-54.22,0-108.44.14Z" transform="translate(1614.91 -165.98)"/></svg>
